<?xml version="1.0" encoding="iso-8859-1"?>
<!-- Uploaded to: SVG Repo, www.svgrepo.com, Generator: SVG Repo Mixer Tools -->
<svg version="1.1" id="Layer_1" xmlns="http://www.w3.org/2000/svg" xmlns:xlink="http://www.w3.org/1999/xlink" 
	 viewBox="0 0 512 512" xml:space="preserve">
<path style="fill:#FF754F;" d="M424.851,8.17H392.17v495.66h32.681c17.974,0,32.681-14.706,32.681-32.681V40.851
	C457.532,22.877,442.826,8.17,424.851,8.17z"/>
<path style="fill:#FF9269;" d="M361.377,206.979l63.474-166.128c0-17.974-14.706-32.681-32.681-32.681h-59.915L256,31.152
	L179.745,8.17H87.149c-17.974,0-32.681,14.706-32.681,32.681v430.298c0,17.974,14.706,32.681,32.681,32.681H392.17
	c17.974,0,32.681-14.706,32.681-32.681v-98.043L361.377,206.979z"/>
<polygon style="fill:#FFEAB5;" points="424.851,40.851 424.851,471.149 392.17,471.149 326.809,223.319 392.17,40.851 "/>
<polygon style="fill:#A7CBCF;" points="332.255,8.17 332.255,62.638 245.106,62.638 299.574,8.17 "/>
<rect x="179.745" y="8.17" style="fill:#C7E7EB;" width="119.83" height="54.468"/>
<rect x="87.149" y="40.851" style="fill:#FFFFFF;" width="305.021" height="430.298"/>
<path style="fill:#FFBE35;" d="M329.183,251.806L256,329.532c28.585,0,54.446-11.58,73.183-30.306V251.806z"/>
<path style="fill:#FF4719;" d="M314.444,193.362v91.125l14.739,14.739c18.726-18.737,30.306-44.598,30.306-73.183L314.444,193.362z"
	/>
<path style="fill:#FFCD60;" d="M314.444,182.468v102.019c-12.756,27.201-34.173,45.045-58.444,45.045
	c-57.159,0-103.489-46.331-103.489-103.489L314.444,182.468z"/>
<path style="fill:#FF754F;" d="M256,226.043l35.404-10.894l35.404,10.894c0,21.689-4.564,41.81-12.364,58.444L256,226.043z"/>
<path style="fill:#FF9269;" d="M329.183,152.859h-36.526l34.151,73.183h32.681C359.489,197.458,347.909,171.596,329.183,152.859z"/>
<path style="fill:#FFEAB5;" d="M256,122.553l18.247,54.74L256,226.043H152.511C152.511,168.884,198.841,122.553,256,122.553z"/>
<path style="fill:#FFB082;" d="M326.809,226.043H256l18.247-48.749l40.197-9.695C322.244,184.233,326.809,204.353,326.809,226.043z"
	/>
<path style="fill:#25BBCC;" d="M256,122.553l58.444,45.045l14.739-14.739C310.446,134.133,284.585,122.553,256,122.553z"/>
<path style="fill:#50D1DD;" d="M314.444,167.598L256,226.043V122.553C280.271,122.553,301.688,140.397,314.444,167.598z"/>
<path d="M424.851,0H87.149C64.623,0,46.298,18.325,46.298,40.851v430.298c0,22.526,18.325,40.851,40.851,40.851h337.702
	c22.526,0,40.851-18.325,40.851-40.851V40.851C465.702,18.325,447.377,0,424.851,0z M187.915,49.021h136.17v19.064
	c0,4.506-3.665,8.17-8.17,8.17h-119.83c-4.506,0-8.17-3.665-8.17-8.17V49.021z M324.085,32.681h-136.17V16.34h136.17V32.681z
	 M449.362,471.149c0,13.515-10.995,24.511-24.511,24.511H87.149c-13.516,0-24.511-10.996-24.511-24.511V40.851
	c0-13.515,10.995-24.511,24.511-24.511h84.426v51.745c0,13.515,10.995,24.511,24.511,24.511h119.83
	c13.516,0,24.511-10.996,24.511-24.511V16.34h84.426c13.516,0,24.511,10.996,24.511,24.511V471.149z"/>
<path d="M424.851,32.681h-59.915c-4.512,0-8.17,3.657-8.17,8.17s3.658,8.17,8.17,8.17h51.745v413.957H95.319V49.021h51.745
	c4.512,0,8.17-3.657,8.17-8.17s-3.657-8.17-8.17-8.17H87.149c-4.512,0-8.17,3.657-8.17,8.17v430.298c0,4.513,3.658,8.17,8.17,8.17
	h337.702c4.512,0,8.17-3.657,8.17-8.17V40.851C433.021,36.338,429.363,32.681,424.851,32.681z"/>
<path d="M152.511,375.83h32.681c4.512,0,8.17-3.657,8.17-8.17c0-4.513-3.658-8.17-8.17-8.17h-32.681c-4.512,0-8.17,3.657-8.17,8.17
	C144.34,372.173,147.999,375.83,152.511,375.83z"/>
<path d="M359.489,359.489H217.872c-4.512,0-8.17,3.657-8.17,8.17c0,4.513,3.658,8.17,8.17,8.17h141.617
	c4.512,0,8.17-3.657,8.17-8.17C367.66,363.146,364.001,359.489,359.489,359.489z"/>
<path d="M367.66,400.34c0-4.513-3.658-8.17-8.17-8.17H152.511c-4.512,0-8.17,3.657-8.17,8.17c0,4.513,3.658,8.17,8.17,8.17h206.979
	C364.001,408.511,367.66,404.854,367.66,400.34z"/>
<path d="M152.511,424.851c-4.512,0-8.17,3.657-8.17,8.17c0,4.513,3.658,8.17,8.17,8.17H256c4.512,0,8.17-3.657,8.17-8.17
	c0-4.513-3.658-8.17-8.17-8.17H152.511z"/>
<path d="M256,337.702c30.434,0,58.058-12.244,78.218-32.058c0.254-0.2,0.502-0.412,0.736-0.646c0.234-0.234,0.447-0.483,0.647-0.737
	c19.813-20.161,32.058-47.785,32.058-78.218s-12.243-58.056-32.058-78.218c-0.2-0.255-0.412-0.502-0.647-0.738
	c-0.234-0.234-0.483-0.447-0.736-0.646c-20.161-19.813-47.785-32.058-78.218-32.058c-61.57,0-111.66,50.09-111.66,111.66
	S194.43,337.702,256,337.702z M161.035,234.213h91.58l64.727,64.726c-16.591,13.983-37.997,22.423-61.342,22.423
	C206.193,321.362,165.193,282.962,161.035,234.213z M264.17,131.077c20.154,1.719,38.537,9.736,53.172,22.069l-53.172,53.171
	V131.077z M350.965,217.872h-75.241l53.172-53.171C341.231,179.335,349.246,197.718,350.965,217.872z M328.897,287.383
	l-53.172-53.171h75.241C349.246,254.367,341.231,272.75,328.897,287.383z M247.83,131.077v86.795h-86.795
	C164.963,171.817,201.776,135.006,247.83,131.077z"/>
</svg>